<?xml version="1.0" encoding="UTF-8" standalone="no"?>
<!DOCTYPE svg PUBLIC "-//W3C//DTD SVG 1.1//EN" "http://www.w3.org/Graphics/SVG/1.1/DTD/svg11.dtd">
<!-- Generated by Microsoft Visio, SVG Export Basic.svg All displays -->
<svg xmlns="http://www.w3.org/2000/svg" xmlns:xlink="http://www.w3.org/1999/xlink" xmlns:ev="http://www.w3.org/2001/xml-events"
		xmlns:v="http://schemas.microsoft.com/visio/2003/SVGExtensions/" width="22.8858in" height="16.5354in"
		viewBox="0 0 1647.78 1190.55" xml:space="preserve" color-interpolation-filters="sRGB" class="st19">
	<v:documentProperties v:langID="1033" v:metric="true" v:viewMarkup="false">
		<v:userDefs>
			<v:ud v:nameU="msvSubprocessMaster" v:prompt="" v:val="VT4(Rectangle)"/>
			<v:ud v:nameU="msvNoAutoConnect" v:val="VT0(1):26"/>
		</v:userDefs>
	</v:documentProperties>

	<style type="text/css">
	<![CDATA[
		.st1 {fill:none;stroke:#ff0000;stroke-width:0.25}
		.st2 {fill:#ff0000;font-family:Calibri;font-size:0.833336em}
		.st3 {visibility:visible}
		.st4 {fill:#759fcc;fill-opacity:0.22;filter:url(#filter_2);stroke:#759fcc;stroke-opacity:0.22}
		.st5 {fill:#759fcc;stroke:#c7c8c8;stroke-width:0.25}
		.st6 {fill:#feffff;font-family:Arial;font-size:1.00001em}
		.st7 {fill:#41719c;fill-opacity:0.22;filter:url(#filter_2);stroke:#41719c;stroke-opacity:0.22}
		.st8 {fill:#41719c;stroke:#c7c8c8;stroke-width:0.25}
		.st9 {fill:#5b9bd5;fill-opacity:0.22;filter:url(#filter_2);stroke:#5b9bd5;stroke-opacity:0.22}
		.st10 {fill:#5b9bd5;stroke:#c7c8c8;stroke-width:0.25}
		.st11 {fill:none;stroke:none;stroke-width:0.25}
		.st12 {fill:#5b9bd5;font-family:Arial;font-size:1.33333em}
		.st13 {fill:#feffff;font-family:Arial;font-size:0.833336em}
		.st14 {fill:#5b9bd5;font-family:Arial;font-size:1.00001em}
		.st15 {fill:#002060;font-family:Arial;font-size:1.00001em}
		.st16 {font-size:1em}
		.st17 {fill:url(#grad0-143);stroke:#4f87bb;stroke-width:0.75}
		.st18 {fill:#4f87bb;font-family:Arial;font-size:1.00001em}
		.st19 {fill:none;fill-rule:evenodd;font-size:12px;overflow:visible;stroke-linecap:square;stroke-miterlimit:3}
	]]>
	</style>

	<defs id="Patterns_And_Gradients">
		<linearGradient id="grad0-143" x1="0" y1="0" x2="1" y2="0" gradientTransform="rotate(60 0.5 0.5)">
			<stop offset="0" stop-color="#e9eff7" stop-opacity="1"/>
			<stop offset="0.24" stop-color="#f4f7fb" stop-opacity="1"/>
			<stop offset="0.54" stop-color="#feffff" stop-opacity="1"/>
		</linearGradient>
	</defs>
	<defs id="Filters">
		<filter id="filter_2">
			<feGaussianBlur stdDeviation="2"/>
		</filter>
	</defs>
	<g v:mID="4" v:index="2" v:groupContext="foregroundPage">
		<v:userDefs>
			<v:ud v:nameU="msvThemeOrder" v:val="VT0(0):26"/>
		</v:userDefs>
		<title>All displays</title>
		<v:pageProperties v:drawingScale="0.0393701" v:pageScale="0.0393701" v:drawingUnits="24" v:shadowOffsetX="8.50394"
				v:shadowOffsetY="-8.50394"/>
		<v:layer v:name="Displays" v:index="0" v:print="false" v:snap="false" v:glue="false"/>
		<v:layer v:name="Shapes" v:index="1"/>
		<g id="shape1-1" v:mID="1" v:groupContext="shape" v:layerMember="0" transform="translate(1034.65,-649.18)">
			<title>Sheet.1</title>
			<desc>M</desc>
			<v:custProps>
				<v:cp v:nameU="display" v:lbl="activeShape" v:type="0" v:langID="2057" v:val="VT4(M)"/>
			</v:custProps>
			<v:textBlock v:margins="rect(4,4,4,4)" v:tabSpace="42.5197" v:verticalAlign="0"/>
			<v:textRect cx="411.024" cy="921.26" width="822.05" height="538.583"/>
			<rect x="0" y="651.969" width="822.047" height="538.583" class="st1"/>
			<text x="809.5" y="664.97" class="st2" v:langID="2057"><v:paragraph v:horizAlign="2"/><v:tabList/>M</text>		</g>
		<g id="shape2-4" v:mID="2" v:groupContext="shape" v:layerMember="0" transform="translate(-188.933,-649.834)">
			<title>Sheet.2</title>
			<desc>L</desc>
			<v:custProps>
				<v:cp v:nameU="display" v:lbl="activeShape" v:type="0" v:langID="2057" v:val="VT4(L)"/>
			</v:custProps>
			<v:textBlock v:margins="rect(4,4,4,4)" v:tabSpace="42.5197" v:verticalAlign="0"/>
			<v:textRect cx="609.449" cy="921.26" width="1218.9" height="538.583"/>
			<rect x="0" y="651.969" width="1218.9" height="538.583" class="st1"/>
			<text x="4" y="664.97" class="st2" v:langID="2057"><v:paragraph/><v:tabList/>L</text>		</g>
		<g id="shape3-7" v:mID="3" v:groupContext="shape" v:layerMember="0" transform="translate(1176.24,-18)">
			<title>Sheet.3</title>
			<desc>S</desc>
			<v:custProps>
				<v:cp v:nameU="display" v:lbl="activeShape" v:type="0" v:langID="2057" v:val="VT4(S)"/>
			</v:custProps>
			<v:textBlock v:margins="rect(4,4,4,4)" v:tabSpace="42.5197" v:verticalAlign="2"/>
			<v:textRect cx="226.772" cy="880.654" width="453.55" height="619.795"/>
			<rect x="0" y="570.756" width="453.543" height="619.795" class="st1"/>
			<text x="444.95" y="1183.55" class="st2" v:langID="2057"><v:paragraph v:horizAlign="2"/><v:tabList/>S</text>		</g>
		<g id="shape4-10" v:mID="4" v:groupContext="shape" v:layerMember="0" transform="translate(836.22,-403.937)">
			<title>Sheet.4</title>
			<desc>T</desc>
			<v:custProps>
				<v:cp v:nameU="display" v:lbl="activeShape" v:type="0" v:langID="2057" v:val="VT4(T)"/>
			</v:custProps>
			<v:textBlock v:margins="rect(4,4,4,4)" v:tabSpace="42.5197" v:verticalAlign="2"/>
			<v:textRect cx="113.386" cy="1077.17" width="226.78" height="226.772"/>
			<rect x="0" y="963.78" width="226.772" height="226.772" class="st1"/>
			<text x="4" y="1183.55" class="st2" v:langID="2057"><v:paragraph/><v:tabList/>T</text>		</g>
		<g id="shape13-13" v:mID="13" v:groupContext="shape" v:layerMember="1" transform="translate(347.902,-909.697)">
			<title>Hexagon</title>
			<desc>Popup-link 2</desc>
			<v:custProps>
				<v:cp v:nameU="popuplink" v:lbl="Active Shape" v:type="0" v:langID="2057" v:val="VT4(2)"/>
			</v:custProps>
			<v:userDefs>
				<v:ud v:nameU="visVersion" v:val="VT0(15):26"/>
			</v:userDefs>
			<v:textBlock v:margins="rect(4,4,4,4)" v:tabSpace="42.5197"/>
			<v:textRect cx="56.6929" cy="1133.86" width="113.39" height="113.386"/>
			<g id="shadow13-14" v:groupContext="shadow" v:shadowOffsetX="0.345598" v:shadowOffsetY="-1.97279" v:shadowType="1"
					transform="matrix(1,0,0,1,0.345598,1.97279)" class="st3">
				<path d="M89.42 1077.17 L23.96 1077.17 L-8.77 1133.86 L23.96 1190.55 L89.42 1190.55 L122.16 1133.86 L89.42 1077.17
							 Z" class="st4"/>
			</g>
			<path d="M89.42 1077.17 L23.96 1077.17 L-8.77 1133.86 L23.96 1190.55 L89.42 1190.55 L122.16 1133.86 L89.42 1077.17 Z"
					class="st5"/>
			<text x="23.34" y="1137.46" class="st6" v:langID="2057"><v:paragraph v:horizAlign="1"/><v:tabList/>Popup-link 2</text>		</g>
		<g id="shape16-19" v:mID="16" v:groupContext="shape" v:layerMember="1" transform="translate(450.759,-850.98)">
			<title>Hexagon.16</title>
			<desc>page link</desc>
			<v:custProps>
				<v:cp v:nameU="pagelink" v:lbl="Active Shape" v:type="0" v:langID="2057" v:val="VT4(Basic-1.svg)"/>
			</v:custProps>
			<v:userDefs>
				<v:ud v:nameU="visVersion" v:val="VT0(15):26"/>
			</v:userDefs>
			<v:textBlock v:margins="rect(4,4,4,4)" v:tabSpace="42.5197"/>
			<v:textRect cx="56.6929" cy="1133.86" width="113.39" height="113.386"/>
			<g id="shadow16-20" v:groupContext="shadow" v:shadowOffsetX="0.345598" v:shadowOffsetY="-1.97279" v:shadowType="1"
					transform="matrix(1,0,0,1,0.345598,1.97279)" class="st3">
				<path d="M89.42 1077.17 L23.96 1077.17 L-8.77 1133.86 L23.96 1190.55 L89.42 1190.55 L122.16 1133.86 L89.42 1077.17
							 Z" class="st7"/>
			</g>
			<path d="M89.42 1077.17 L23.96 1077.17 L-8.77 1133.86 L23.96 1190.55 L89.42 1190.55 L122.16 1133.86 L89.42 1077.17 Z"
					class="st8"/>
			<text x="32.67" y="1137.46" class="st6" v:langID="2057"><v:paragraph v:horizAlign="1"/><v:tabList/>page link</text>		</g>
		<a xlink:href="https://d2a8hhqmsel69m.cloudfront.net/">
			<g id="shape17-25" v:mID="17" v:groupContext="shape" v:layerMember="1" transform="translate(347.902,-791.09)">
				<title>Hexagon.17</title>
				<desc>hyperlink</desc>
				<v:userDefs>
					<v:ud v:nameU="visVersion" v:val="VT0(15):26"/>
				</v:userDefs>
				<v:textBlock v:margins="rect(4,4,4,4)" v:tabSpace="42.5197"/>
				<v:textRect cx="56.6929" cy="1133.86" width="113.39" height="113.386"/>
				<g id="shadow17-26" v:groupContext="shadow" v:shadowOffsetX="0.345598" v:shadowOffsetY="-1.97279" v:shadowType="1"
						transform="matrix(1,0,0,1,0.345598,1.97279)" class="st3">
					<path d="M89.42 1077.17 L23.96 1077.17 L-8.77 1133.86 L23.96 1190.55 L89.42 1190.55 L122.16 1133.86 L89.42 1077.17
								 Z" class="st9"/>
				</g>
				<path d="M89.42 1077.17 L23.96 1077.17 L-8.77 1133.86 L23.96 1190.55 L89.42 1190.55 L122.16 1133.86 L89.42 1077.17
							 Z" class="st10"/>
				<text x="32.68" y="1137.46" class="st6" v:langID="2057"><v:paragraph v:horizAlign="1"/><v:tabList/>hyperlink</text>			</g>
		</a>
		<g id="shape18-31" v:mID="18" v:groupContext="shape" v:layerMember="1" transform="translate(291.969,-1062.99)">
			<title>Sheet.18</title>
			<desc>Large display</desc>
			<v:textBlock v:margins="rect(4,4,4,4)" v:tabSpace="42.5197"/>
			<v:textRect cx="116.22" cy="1176.38" width="232.45" height="28.3465"/>
			<rect x="0" y="1162.2" width="232.441" height="28.3465" class="st11"/>
			<text x="68.63" y="1181.18" class="st12" v:langID="2057"><v:paragraph v:horizAlign="1"/><v:tabList/>Large display</text>		</g>
		<g id="shape24-34" v:mID="24" v:groupContext="shape" v:layerMember="1" transform="translate(243.729,-850.98)">
			<title>Hexagon.24</title>
			<desc>Popup-link 1</desc>
			<v:custProps>
				<v:cp v:nameU="popuplink" v:lbl="Active Shape" v:type="0" v:langID="2057" v:val="VT4(1)"/>
			</v:custProps>
			<v:userDefs>
				<v:ud v:nameU="visVersion" v:val="VT0(15):26"/>
			</v:userDefs>
			<v:textBlock v:margins="rect(4,4,4,4)" v:tabSpace="42.5197"/>
			<v:textRect cx="56.6929" cy="1133.86" width="113.39" height="113.386"/>
			<g id="shadow24-35" v:groupContext="shadow" v:shadowOffsetX="0.345598" v:shadowOffsetY="-1.97279" v:shadowType="1"
					transform="matrix(1,0,0,1,0.345598,1.97279)" class="st3">
				<path d="M89.42 1077.17 L23.96 1077.17 L-8.77 1133.86 L23.96 1190.55 L89.42 1190.55 L122.16 1133.86 L89.42 1077.17
							 Z" class="st4"/>
			</g>
			<path d="M89.42 1077.17 L23.96 1077.17 L-8.77 1133.86 L23.96 1190.55 L89.42 1190.55 L122.16 1133.86 L89.42 1077.17 Z"
					class="st5"/>
			<text x="23.34" y="1137.46" class="st6" v:langID="2057"><v:paragraph v:horizAlign="1"/><v:tabList/>Popup-link 1</text>		</g>
		<g id="shape26-40" v:mID="26" v:groupContext="shape" v:layerMember="1" transform="translate(1393.94,-932.263)">
			<title>Hexagon.26</title>
			<desc>Popup-link 2</desc>
			<v:custProps>
				<v:cp v:nameU="popuplink" v:lbl="Active Shape" v:type="0" v:langID="2057" v:val="VT4(2)"/>
			</v:custProps>
			<v:userDefs>
				<v:ud v:nameU="visVersion" v:val="VT0(15):26"/>
			</v:userDefs>
			<v:textBlock v:margins="rect(4,4,4,4)" v:tabSpace="42.5197"/>
			<v:textRect cx="56.6929" cy="1133.86" width="113.39" height="113.386"/>
			<g id="shadow26-41" v:groupContext="shadow" v:shadowOffsetX="0.345598" v:shadowOffsetY="-1.97279" v:shadowType="1"
					transform="matrix(1,0,0,1,0.345598,1.97279)" class="st3">
				<path d="M89.42 1077.17 L23.96 1077.17 L-8.77 1133.86 L23.96 1190.55 L89.42 1190.55 L122.16 1133.86 L89.42 1077.17
							 Z" class="st4"/>
			</g>
			<path d="M89.42 1077.17 L23.96 1077.17 L-8.77 1133.86 L23.96 1190.55 L89.42 1190.55 L122.16 1133.86 L89.42 1077.17 Z"
					class="st5"/>
			<text x="23.34" y="1137.46" class="st6" v:langID="2057"><v:paragraph v:horizAlign="1"/><v:tabList/>Popup-link 2</text>		</g>
		<g id="shape27-46" v:mID="27" v:groupContext="shape" v:layerMember="1" transform="translate(1496.79,-873.545)">
			<title>Hexagon.27</title>
			<desc>page link</desc>
			<v:custProps>
				<v:cp v:nameU="pagelink" v:lbl="Active Shape" v:type="0" v:langID="2057" v:val="VT4(Basic-1.svg)"/>
			</v:custProps>
			<v:userDefs>
				<v:ud v:nameU="visVersion" v:val="VT0(15):26"/>
			</v:userDefs>
			<v:textBlock v:margins="rect(4,4,4,4)" v:tabSpace="42.5197"/>
			<v:textRect cx="56.6929" cy="1133.86" width="113.39" height="113.386"/>
			<g id="shadow27-47" v:groupContext="shadow" v:shadowOffsetX="0.345598" v:shadowOffsetY="-1.97279" v:shadowType="1"
					transform="matrix(1,0,0,1,0.345598,1.97279)" class="st3">
				<path d="M89.42 1077.17 L23.96 1077.17 L-8.77 1133.86 L23.96 1190.55 L89.42 1190.55 L122.16 1133.86 L89.42 1077.17
							 Z" class="st7"/>
			</g>
			<path d="M89.42 1077.17 L23.96 1077.17 L-8.77 1133.86 L23.96 1190.55 L89.42 1190.55 L122.16 1133.86 L89.42 1077.17 Z"
					class="st8"/>
			<text x="32.67" y="1137.46" class="st6" v:langID="2057"><v:paragraph v:horizAlign="1"/><v:tabList/>page link</text>		</g>
		<a xlink:href="https://d2a8hhqmsel69m.cloudfront.net/">
			<g id="shape28-52" v:mID="28" v:groupContext="shape" v:layerMember="1" transform="translate(1393.94,-813.655)">
				<title>Hexagon.28</title>
				<desc>hyperlink</desc>
				<v:userDefs>
					<v:ud v:nameU="visVersion" v:val="VT0(15):26"/>
				</v:userDefs>
				<v:textBlock v:margins="rect(4,4,4,4)" v:tabSpace="42.5197"/>
				<v:textRect cx="56.6929" cy="1133.86" width="113.39" height="113.386"/>
				<g id="shadow28-53" v:groupContext="shadow" v:shadowOffsetX="0.345598" v:shadowOffsetY="-1.97279" v:shadowType="1"
						transform="matrix(1,0,0,1,0.345598,1.97279)" class="st3">
					<path d="M89.42 1077.17 L23.96 1077.17 L-8.77 1133.86 L23.96 1190.55 L89.42 1190.55 L122.16 1133.86 L89.42 1077.17
								 Z" class="st9"/>
				</g>
				<path d="M89.42 1077.17 L23.96 1077.17 L-8.77 1133.86 L23.96 1190.55 L89.42 1190.55 L122.16 1133.86 L89.42 1077.17
							 Z" class="st10"/>
				<text x="32.68" y="1137.46" class="st6" v:langID="2057"><v:paragraph v:horizAlign="1"/><v:tabList/>hyperlink</text>			</g>
		</a>
		<g id="shape29-58" v:mID="29" v:groupContext="shape" v:layerMember="1" transform="translate(1338,-1085.56)">
			<title>Sheet.29</title>
			<desc>Medium display</desc>
			<v:textBlock v:margins="rect(4,4,4,4)" v:tabSpace="42.5197"/>
			<v:textRect cx="116.22" cy="1176.38" width="232.45" height="28.3465"/>
			<rect x="0" y="1162.2" width="232.441" height="28.3465" class="st11"/>
			<text x="60.64" y="1181.18" class="st12" v:langID="2057"><v:paragraph v:horizAlign="1"/><v:tabList/>Medium display</text>		</g>
		<g id="shape30-61" v:mID="30" v:groupContext="shape" v:layerMember="1" transform="translate(1289.76,-873.545)">
			<title>Hexagon.30</title>
			<desc>Popup-link 1</desc>
			<v:custProps>
				<v:cp v:nameU="popuplink" v:lbl="Active Shape" v:type="0" v:langID="2057" v:val="VT4(1)"/>
			</v:custProps>
			<v:userDefs>
				<v:ud v:nameU="visVersion" v:val="VT0(15):26"/>
			</v:userDefs>
			<v:textBlock v:margins="rect(4,4,4,4)" v:tabSpace="42.5197"/>
			<v:textRect cx="56.6929" cy="1133.86" width="113.39" height="113.386"/>
			<g id="shadow30-62" v:groupContext="shadow" v:shadowOffsetX="0.345598" v:shadowOffsetY="-1.97279" v:shadowType="1"
					transform="matrix(1,0,0,1,0.345598,1.97279)" class="st3">
				<path d="M89.42 1077.17 L23.96 1077.17 L-8.77 1133.86 L23.96 1190.55 L89.42 1190.55 L122.16 1133.86 L89.42 1077.17
							 Z" class="st4"/>
			</g>
			<path d="M89.42 1077.17 L23.96 1077.17 L-8.77 1133.86 L23.96 1190.55 L89.42 1190.55 L122.16 1133.86 L89.42 1077.17 Z"
					class="st5"/>
			<text x="23.34" y="1137.46" class="st6" v:langID="2057"><v:paragraph v:horizAlign="1"/><v:tabList/>Popup-link 1</text>		</g>
		<g id="shape31-67" v:mID="31" v:groupContext="shape" v:layerMember="1" transform="translate(1346.46,-425.197)">
			<title>Hexagon.31</title>
			<desc>Popup-link 2</desc>
			<v:custProps>
				<v:cp v:nameU="popuplink" v:lbl="Active Shape" v:type="0" v:langID="2057" v:val="VT4(2)"/>
			</v:custProps>
			<v:userDefs>
				<v:ud v:nameU="visVersion" v:val="VT0(15):26"/>
			</v:userDefs>
			<v:textBlock v:margins="rect(4,4,4,4)" v:tabSpace="42.5197"/>
			<v:textRect cx="56.6929" cy="1133.86" width="113.39" height="113.386"/>
			<g id="shadow31-68" v:groupContext="shadow" v:shadowOffsetX="0.345598" v:shadowOffsetY="-1.97279" v:shadowType="1"
					transform="matrix(1,0,0,1,0.345598,1.97279)" class="st3">
				<path d="M89.42 1077.17 L23.96 1077.17 L-8.77 1133.86 L23.96 1190.55 L89.42 1190.55 L122.16 1133.86 L89.42 1077.17
							 Z" class="st4"/>
			</g>
			<path d="M89.42 1077.17 L23.96 1077.17 L-8.77 1133.86 L23.96 1190.55 L89.42 1190.55 L122.16 1133.86 L89.42 1077.17 Z"
					class="st5"/>
			<text x="23.34" y="1137.46" class="st6" v:langID="2057"><v:paragraph v:horizAlign="1"/><v:tabList/>Popup-link 2</text>		</g>
		<g id="shape32-73" v:mID="32" v:groupContext="shape" v:layerMember="1" transform="translate(1417.32,-247.019)">
			<title>Hexagon.32</title>
			<desc>page link</desc>
			<v:custProps>
				<v:cp v:nameU="pagelink" v:lbl="Active Shape" v:type="0" v:langID="2057" v:val="VT4(Basic-1.svg)"/>
			</v:custProps>
			<v:userDefs>
				<v:ud v:nameU="visVersion" v:val="VT0(15):26"/>
			</v:userDefs>
			<v:textBlock v:margins="rect(4,4,4,4)" v:tabSpace="42.5197"/>
			<v:textRect cx="56.6929" cy="1133.86" width="113.39" height="113.386"/>
			<g id="shadow32-74" v:groupContext="shadow" v:shadowOffsetX="0.345598" v:shadowOffsetY="-1.97279" v:shadowType="1"
					transform="matrix(1,0,0,1,0.345598,1.97279)" class="st3">
				<path d="M89.42 1077.17 L23.96 1077.17 L-8.77 1133.86 L23.96 1190.55 L89.42 1190.55 L122.16 1133.86 L89.42 1077.17
							 Z" class="st7"/>
			</g>
			<path d="M89.42 1077.17 L23.96 1077.17 L-8.77 1133.86 L23.96 1190.55 L89.42 1190.55 L122.16 1133.86 L89.42 1077.17 Z"
					class="st8"/>
			<text x="32.67" y="1137.46" class="st6" v:langID="2057"><v:paragraph v:horizAlign="1"/><v:tabList/>page link</text>		</g>
		<a xlink:href="https://d2a8hhqmsel69m.cloudfront.net/">
			<g id="shape33-79" v:mID="33" v:groupContext="shape" v:layerMember="1" transform="translate(1379.87,-127.559)">
				<title>Hexagon.33</title>
				<desc>hyperlink</desc>
				<v:userDefs>
					<v:ud v:nameU="visVersion" v:val="VT0(15):26"/>
				</v:userDefs>
				<v:textBlock v:margins="rect(4,4,4,4)" v:tabSpace="42.5197"/>
				<v:textRect cx="56.6929" cy="1133.86" width="113.39" height="113.386"/>
				<g id="shadow33-80" v:groupContext="shadow" v:shadowOffsetX="0.345598" v:shadowOffsetY="-1.97279" v:shadowType="1"
						transform="matrix(1,0,0,1,0.345598,1.97279)" class="st3">
					<path d="M89.42 1077.17 L23.96 1077.17 L-8.77 1133.86 L23.96 1190.55 L89.42 1190.55 L122.16 1133.86 L89.42 1077.17
								 Z" class="st9"/>
				</g>
				<path d="M89.42 1077.17 L23.96 1077.17 L-8.77 1133.86 L23.96 1190.55 L89.42 1190.55 L122.16 1133.86 L89.42 1077.17
							 Z" class="st10"/>
				<text x="32.68" y="1137.46" class="st6" v:langID="2057"><v:paragraph v:horizAlign="1"/><v:tabList/>hyperlink</text>			</g>
		</a>
		<g id="shape34-85" v:mID="34" v:groupContext="shape" v:layerMember="1" transform="translate(1291.89,-563.386)">
			<title>Sheet.34</title>
			<desc>Small display</desc>
			<v:textBlock v:margins="rect(4,4,4,4)" v:tabSpace="42.5197"/>
			<v:textRect cx="116.22" cy="1176.38" width="232.45" height="28.3465"/>
			<rect x="0" y="1162.2" width="232.441" height="28.3465" class="st11"/>
			<text x="69.09" y="1181.18" class="st12" v:langID="2057"><v:paragraph v:horizAlign="1"/><v:tabList/>Small display</text>		</g>
		<g id="shape35-88" v:mID="35" v:groupContext="shape" v:layerMember="1" transform="translate(1313.05,-305.737)">
			<title>Hexagon.35</title>
			<desc>Popup-link 1</desc>
			<v:custProps>
				<v:cp v:nameU="popuplink" v:lbl="Active Shape" v:type="0" v:langID="2057" v:val="VT4(1)"/>
			</v:custProps>
			<v:userDefs>
				<v:ud v:nameU="visVersion" v:val="VT0(15):26"/>
			</v:userDefs>
			<v:textBlock v:margins="rect(4,4,4,4)" v:tabSpace="42.5197"/>
			<v:textRect cx="56.6929" cy="1133.86" width="113.39" height="113.386"/>
			<g id="shadow35-89" v:groupContext="shadow" v:shadowOffsetX="0.345598" v:shadowOffsetY="-1.97279" v:shadowType="1"
					transform="matrix(1,0,0,1,0.345598,1.97279)" class="st3">
				<path d="M89.42 1077.17 L23.96 1077.17 L-8.77 1133.86 L23.96 1190.55 L89.42 1190.55 L122.16 1133.86 L89.42 1077.17
							 Z" class="st4"/>
			</g>
			<path d="M89.42 1077.17 L23.96 1077.17 L-8.77 1133.86 L23.96 1190.55 L89.42 1190.55 L122.16 1133.86 L89.42 1077.17 Z"
					class="st5"/>
			<text x="23.34" y="1137.46" class="st6" v:langID="2057"><v:paragraph v:horizAlign="1"/><v:tabList/>Popup-link 1</text>		</g>
		<g id="shape36-94" v:mID="36" v:groupContext="shape" v:layerMember="1" transform="translate(913.355,-511.056)">
			<title>Hexagon.36</title>
			<desc>Popup-link 2</desc>
			<v:custProps>
				<v:cp v:nameU="popuplink" v:lbl="Active Shape" v:type="0" v:langID="2057" v:val="VT4(2)"/>
			</v:custProps>
			<v:userDefs>
				<v:ud v:nameU="visVersion" v:val="VT0(15):26"/>
			</v:userDefs>
			<v:textBlock v:margins="rect(4,4,4,4)" v:tabSpace="42.5197"/>
			<v:textRect cx="34.2647" cy="1156.29" width="68.53" height="68.5295"/>
			<g id="shadow36-95" v:groupContext="shadow" v:shadowOffsetX="0.345598" v:shadowOffsetY="-1.97279" v:shadowType="1"
					transform="matrix(1,0,0,1,0.345598,1.97279)" class="st3">
				<path d="M54.05 1122.02 L14.48 1122.02 L-5.3 1156.29 L14.48 1190.55 L54.05 1190.55 L73.83 1156.29 L54.05 1122.02 Z"
						class="st4"/>
			</g>
			<path d="M54.05 1122.02 L14.48 1122.02 L-5.3 1156.29 L14.48 1190.55 L54.05 1190.55 L73.83 1156.29 L54.05 1122.02 Z"
					class="st5"/>
			<text x="6.47" y="1159.29" class="st13" v:langID="2057"><v:paragraph v:horizAlign="1"/><v:tabList/>Popup-link 2</text>		</g>
		<g id="shape37-100" v:mID="37" v:groupContext="shape" v:layerMember="1" transform="translate(975.521,-475.567)">
			<title>Hexagon.37</title>
			<desc>page link</desc>
			<v:custProps>
				<v:cp v:nameU="pagelink" v:lbl="Active Shape" v:type="0" v:langID="2057" v:val="VT4(Basic-1.svg)"/>
			</v:custProps>
			<v:userDefs>
				<v:ud v:nameU="visVersion" v:val="VT0(15):26"/>
			</v:userDefs>
			<v:textBlock v:margins="rect(4,4,4,4)" v:tabSpace="42.5197"/>
			<v:textRect cx="34.2647" cy="1156.29" width="68.53" height="68.5295"/>
			<g id="shadow37-101" v:groupContext="shadow" v:shadowOffsetX="0.345598" v:shadowOffsetY="-1.97279" v:shadowType="1"
					transform="matrix(1,0,0,1,0.345598,1.97279)" class="st3">
				<path d="M54.05 1122.02 L14.48 1122.02 L-5.3 1156.29 L14.48 1190.55 L54.05 1190.55 L73.83 1156.29 L54.05 1122.02 Z"
						class="st7"/>
			</g>
			<path d="M54.05 1122.02 L14.48 1122.02 L-5.3 1156.29 L14.48 1190.55 L54.05 1190.55 L73.83 1156.29 L54.05 1122.02 Z"
					class="st8"/>
			<text x="14.25" y="1159.29" class="st13" v:langID="2057"><v:paragraph v:horizAlign="1"/><v:tabList/>page link</text>		</g>
		<a xlink:href="https://d2a8hhqmsel69m.cloudfront.net/">
			<g id="shape38-106" v:mID="38" v:groupContext="shape" v:layerMember="1" transform="translate(913.355,-439.37)">
				<title>Hexagon.38</title>
				<desc>hyperlink</desc>
				<v:userDefs>
					<v:ud v:nameU="visVersion" v:val="VT0(15):26"/>
				</v:userDefs>
				<v:textBlock v:margins="rect(4,4,4,4)" v:tabSpace="42.5197"/>
				<v:textRect cx="34.2647" cy="1156.29" width="68.53" height="68.5295"/>
				<g id="shadow38-107" v:groupContext="shadow" v:shadowOffsetX="0.345598" v:shadowOffsetY="-1.97279" v:shadowType="1"
						transform="matrix(1,0,0,1,0.345598,1.97279)" class="st3">
					<path d="M54.05 1122.02 L14.48 1122.02 L-5.3 1156.29 L14.48 1190.55 L54.05 1190.55 L73.83 1156.29 L54.05 1122.02
								 Z" class="st9"/>
				</g>
				<path d="M54.05 1122.02 L14.48 1122.02 L-5.3 1156.29 L14.48 1190.55 L54.05 1190.55 L73.83 1156.29 L54.05 1122.02 Z"
						class="st10"/>
				<text x="14.25" y="1159.29" class="st13" v:langID="2057"><v:paragraph v:horizAlign="1"/><v:tabList/>hyperlink</text>			</g>
		</a>
		<g id="shape39-112" v:mID="39" v:groupContext="shape" v:layerMember="1" transform="translate(841.323,-588.189)">
			<title>Sheet.39</title>
			<desc>Tiny display</desc>
			<v:textBlock v:margins="rect(4,4,4,4)" v:tabSpace="42.5197"/>
			<v:textRect cx="107.291" cy="1176.38" width="214.59" height="28.3465"/>
			<rect x="0" y="1162.2" width="214.583" height="28.3465" class="st11"/>
			<text x="75.61" y="1179.98" class="st14" v:langID="2057"><v:paragraph v:horizAlign="1"/><v:tabList/>Tiny display</text>		</g>
		<g id="shape40-115" v:mID="40" v:groupContext="shape" v:layerMember="1" transform="translate(850.394,-475.567)">
			<title>Hexagon.40</title>
			<desc>Popup-link 1</desc>
			<v:custProps>
				<v:cp v:nameU="popuplink" v:lbl="Active Shape" v:type="0" v:langID="2057" v:val="VT4(1)"/>
			</v:custProps>
			<v:userDefs>
				<v:ud v:nameU="visVersion" v:val="VT0(15):26"/>
			</v:userDefs>
			<v:textBlock v:margins="rect(4,4,4,4)" v:tabSpace="42.5197"/>
			<v:textRect cx="34.2647" cy="1156.29" width="68.53" height="68.5295"/>
			<g id="shadow40-116" v:groupContext="shadow" v:shadowOffsetX="0.345598" v:shadowOffsetY="-1.97279" v:shadowType="1"
					transform="matrix(1,0,0,1,0.345598,1.97279)" class="st3">
				<path d="M54.05 1122.02 L14.48 1122.02 L-5.3 1156.29 L14.48 1190.55 L54.05 1190.55 L73.83 1156.29 L54.05 1122.02 Z"
						class="st4"/>
			</g>
			<path d="M54.05 1122.02 L14.48 1122.02 L-5.3 1156.29 L14.48 1190.55 L54.05 1190.55 L73.83 1156.29 L54.05 1122.02 Z"
					class="st5"/>
			<text x="6.47" y="1159.29" class="st13" v:langID="2057"><v:paragraph v:horizAlign="1"/><v:tabList/>Popup-link 1</text>		</g>
		<g id="shape41-121" v:mID="41" v:groupContext="shape" transform="translate(464.882,-411.024)">
			<title>Sheet.41</title>
			<desc>ASVG scales to the size of the container provided on the web ...</desc>
			<v:textBlock v:margins="rect(4,4,4,4)" v:tabSpace="42.5197" v:verticalAlign="0"/>
			<v:textRect cx="171.496" cy="1092.22" width="343" height="196.654"/>
			<rect x="0" y="993.898" width="342.992" height="196.654" class="st11"/>
			<text x="4" y="1008.7" class="st15" v:langID="2057"><v:paragraph/><v:tabList/>ASVG scales to the size of the container provided on the web <tspan
						x="4" dy="1.2em" class="st16">page</tspan>. However, the following recommendations would give <tspan x="4"
						dy="1.2em" class="st16">good results when using Visio to create SVG images</tspan>.<v:newlineChar/><v:newlineChar/><tspan
						x="4" dy="2.4em" class="st16">Recommend using metric page layout </tspan>– A3 size and minimum <tspan x="4"
						dy="1.2em" class="st16">Arial </tspan>12pt font sizes.<v:newlineChar/><v:newlineChar/><tspan x="4"
						dy="2.4em" class="st16">There are </tspan>4 display sizes that can be configured:<v:newlineChar/><tspan
						x="4" dy="1.2em" class="st16">Large </tspan>– recommend 430mm width<v:newlineChar/><tspan x="4" dy="1.2em"
						class="st16">Medium </tspan>– 290mm<v:newlineChar/><tspan x="4" dy="1.2em" class="st16">Small </tspan>– 160mm<v:newlineChar/><tspan
						x="4" dy="1.2em" class="st16">Tiny </tspan>– 80mm<v:newlineChar/><v:newlineChar/></text>		</g>
		<g id="shape22-133" v:mID="22" v:groupContext="shape" v:layerMember="1" transform="translate(113.386,-440.464)">
			<title>Rectangle.22</title>
			<desc>Popup 1</desc>
			<v:custProps>
				<v:cp v:nameU="popup" v:lbl="Active Shape" v:type="0" v:langID="2057" v:val="VT4(1)"/>
			</v:custProps>
			<v:userDefs>
				<v:ud v:nameU="visVersion" v:val="VT0(15):26"/>
			</v:userDefs>
			<v:textBlock v:margins="rect(4,4,4,4)" v:tabSpace="42.5197"/>
			<v:textRect cx="62.1555" cy="1106.06" width="124.32" height="168.985"/>
			<rect x="0" y="1021.57" width="124.311" height="168.985" class="st10"/>
			<text x="39.8" y="1109.66" class="st6" v:langID="2057"><v:paragraph v:horizAlign="1"/><v:tabList/>Popup 1</text>		</g>
		<g id="group25-136" transform="translate(265.11,-522.638)" v:mID="25" v:groupContext="group" v:layerMember="1">
			<v:custProps>
				<v:cp v:nameU="popup" v:lbl="Active Shape" v:type="0" v:langID="2057" v:val="VT4(2)"/>
			</v:custProps>
			<title>Sheet.25</title>
			<g id="shape23-137" v:mID="23" v:groupContext="shape" v:layerMember="1">
				<title>Rectangle.23</title>
				<desc>Popup 2</desc>
				<v:userDefs>
					<v:ud v:nameU="visVersion" v:val="VT0(15):26"/>
				</v:userDefs>
				<v:textBlock v:margins="rect(4,4,4,4)" v:tabSpace="42.5197" v:verticalAlign="0"/>
				<v:textRect cx="71.7992" cy="1148.03" width="143.6" height="85.0394"/>
				<rect x="0" y="1105.51" width="143.598" height="85.0394" class="st10"/>
				<text x="94.89" y="1120.31" class="st6" v:langID="2057"><v:paragraph v:horizAlign="2"/><v:tabList/>Popup 2</text>			</g>
			<g id="shape20-140" v:mID="20" v:groupContext="shape" v:layerMember="1" transform="translate(15.1063,-31.8898)">
				<title>Rectangle</title>
				<desc>Any type of link</desc>
				<v:userDefs>
					<v:ud v:nameU="visVersion" v:val="VT0(15):26"/>
				</v:userDefs>
				<v:textBlock v:margins="rect(4,4,4,4)" v:tabSpace="42.5197"/>
				<v:textRect cx="56.6929" cy="1179.92" width="113.39" height="21.2598"/>
				<rect x="0" y="1169.29" width="113.386" height="21.2598" class="st17"/>
				<text x="28.01" y="1183.52" class="st18" v:langID="2057"><v:paragraph v:horizAlign="2"/><v:tabList/>Any type of link</text>			</g>
		</g>
	</g>
</svg>
